<svg id="logo_DV" xmlns="http://www.w3.org/2000/svg" viewBox="0 0 595.28 595.28">
  <g id="V">
    <polygon points="496.06 595.28 396.85 595.28 297.64 0 396.85 0 496.06 595.28"/>
    <polygon points="396.85 595.28 496.06 595.28 595.28 0 496.06 0 396.85 595.28"/>
  </g>
  <g id="D">
    <polygon points="297.64 297.64 248.03 0 148.82 0 198.43 297.64 297.64 297.64"/>
    <polygon points="297.64 297.64 248.03 595.28 148.82 595.28 198.43 297.64 297.64 297.64"/>
    <rect width="99.21" height="595.28"/>
    <polygon points="264.57 99.21 0 99.21 0 0 248.03 0 264.57 99.21"/>
    <polygon points="264.57 496.06 0 496.06 0 595.28 248.03 595.28 264.57 496.06"/>
  </g>
</svg>
